<svg xmlns="http://www.w3.org/2000/svg" viewBox="0 0 43 15.839" height="59.865" width="162.52"><defs><clipPath id="c" clipPathUnits="userSpaceOnUse"><path d="M0 0h595.276v841.89H0Z"/></clipPath><clipPath id="b" clipPathUnits="userSpaceOnUse"><path d="M0 0h595.276v841.89H0Z"/></clipPath><clipPath id="a" clipPathUnits="userSpaceOnUse"><path d="M0 0h595.276v841.89H0Z"/></clipPath></defs><path style="fill:#b72e2a;fill-opacity:1;fill-rule:nonzero;stroke:none;stroke-width:.35277775" d="M44.756 74.622h11.84v-11.84h-11.84z" transform="translate(-42.756 -60.783)"/><path style="fill:#fff;fill-opacity:1;fill-rule:nonzero;stroke:none" d="M0 0v3.169h-9.972v-6.8h-2.152v-2.164h2.152v-1.71h-2.152v-2.167h2.152v-6.657h3.846v6.657h3.414l.967 2.167h-4.381v1.71h5.163L0-3.631h-6.126V0Z" transform="matrix(.35278 0 0 -.35278 10.086 5.807)"/><g style="fill:#006092;fill-opacity:1" clip-path="url(#a)" transform="matrix(.35278 0 0 -.35278 -32.5 293.5)"><path style="fill:#006092;fill-opacity:1;fill-rule:nonzero;stroke:none" d="M148.85 812.882h3.302v-10.607h-3.302zm12.937-10.584v1.493h-.041c-.852-1.265-2.097-1.785-3.468-1.785-2.968 0-4.983 2.676-4.983 5.643 0 2.966 1.872 5.602 4.94 5.602 1.373 0 2.389-.435 3.386-1.743h.043V818.724h2.987v-16.426zm-.021 5.309c0 1.602-.872 3.111-2.74 3.111-1.721 0-2.616-1.536-2.616-3.153 0-1.679.935-3.154 2.698-3.154 1.703 0 2.658 1.411 2.658 3.196m14.832 0v-.83h-7.805c.123-1.241.891-2.49 2.491-2.49.916 0 1.723.437 2.138 1.267l2.907-.225c-.726-2.183-2.68-3.323-5.191-3.323-3.22 0-5.459 2.199-5.459 5.601 0 3.445 2.239 5.644 5.459 5.644 3.22 0 5.46-2.199 5.46-5.644m-2.986 1.079c-.108 1.037-.896 2.281-2.328 2.281-1.557 0-2.326-1.079-2.491-2.281zm4.069 9.76v-16.148h2.993v16.426h-2.993zm5.947.655c-.998 0-1.745-.888-1.745-1.764 0-.827.747-1.718 1.745-1.718.955 0 1.741.851 1.741 1.761 0 .955-.849 1.721-1.741 1.721m-33.129 0c-.995 0-1.743-.888-1.743-1.764 0-.827.748-1.718 1.743-1.718.958 0 1.741.851 1.741 1.761 0 .955-.848 1.721-1.741 1.721m31.632-16.803h2.993v10.664h-2.993zm10.079 2.344a2.46 2.46 0 0 0-.6-.064c-.769 0-.975.229-.975.706v5.397h1.575v2.281h-1.575v3.336h-2.992v-3.336h-1.367v-2.281h1.367v-5.729c0-2.302 1.184-2.779 3.136-2.779.48 0 .955.064 1.431.125zm3.707-5.379h3.125l5.163 13.699h-3.283l-2.263-7.055h-.04l-2.265 7.055h-3.276l4.004-10.664zM137.3 809.914v-1.857h1.569v-5.82h3.3v5.82h3.116l.826 1.857h-3.942v1.085h4.427l.826 1.857h-5.253v3.116h5.253v2.71h-8.553v-5.826H137.3v-1.857h1.569v-1.085z"/></g><g style="fill:#006092;fill-opacity:1"><path style="fill:#006092;fill-opacity:1;fill-rule:nonzero;stroke:none" d="M0 0h-.557v.377H.978V0H.422v-1.737H0Z" transform="matrix(.35278 0 0 -.35278 39.768 4.009)"/></g><g style="fill:#006092;fill-opacity:1"><path style="fill:#006092;fill-opacity:1;fill-rule:nonzero;stroke:none" d="m0 0-.613-1.44L-1.226 0h-.482v-2.116h.403V-.73h.009l.565-1.386h.235l.57 1.413h.005v-1.413h.404V0Z" transform="matrix(.35278 0 0 -.35278 40.83 3.876)"/></g><path style="fill:#006092;fill-opacity:1;fill-rule:nonzero;stroke:none;stroke-width:.35277775" d="M59.246 74.596h.321v-1.323h-.321z" transform="translate(-42.756 -60.783)"/><g style="fill:#006092;fill-opacity:1"><path style="fill:#006092;fill-opacity:1;fill-rule:nonzero;stroke:none" d="M0 0h-.911v3.75H0l1.366-2.108V3.75h.911V0h-.911L0 2.137Z" transform="matrix(.35278 0 0 -.35278 17.98 13.813)"/></g><g style="fill:#006092;fill-opacity:1"><path style="fill:#006092;fill-opacity:1;fill-rule:nonzero;stroke:none" d="M0 0h-.911v3.014h-.866v.736H.86v-.736H0Z" transform="matrix(.35278 0 0 -.35278 20.133 13.813)"/></g><g style="fill:#006092;fill-opacity:1"><path style="fill:#006092;fill-opacity:1;fill-rule:nonzero;stroke:none" d="M0 0h1.237v-.737H0v-.776h1.237v-.736H-.911v3.75h2.148V.765H0Z" transform="matrix(.35278 0 0 -.35278 21.451 13.02)"/></g><g style="fill:#006092;fill-opacity:1" clip-path="url(#b)" transform="matrix(.35278 0 0 -.35278 -32.5 293.5)"><g style="fill:#006092;fill-opacity:1"><path style="fill:#006092;fill-opacity:1;fill-rule:nonzero;stroke:none" d="M0 0h-.911v3.75H.304c.495 0 .854-.09 1.102-.281.258-.202.405-.54.405-.95 0-.568-.242-.95-.726-1.141L1.912 0H.821L0 1.451Zm.293 1.962c.376 0 .595.191.595.517 0 .316-.213.523-.54.523H0v-1.04z" transform="translate(157.367 792.812)"/></g></g><g style="fill:#006092;fill-opacity:1"><path style="fill:#006092;fill-opacity:1;fill-rule:nonzero;stroke:none" d="M0 0h-.91v3.75H0l1.367-2.108V3.75h.91V0h-.91L0 2.137Z" transform="matrix(.35278 0 0 -.35278 24.804 13.813)"/></g><g style="fill:#006092;fill-opacity:1"><path style="fill:#006092;fill-opacity:1;fill-rule:nonzero;stroke:none" d="m0 0-.163-.54h-.973L.101 3.21H1.26L2.491-.54H1.49L1.327 0Zm.663 2.136L.225.737h.877z" transform="matrix(.35278 0 0 -.35278 26.717 13.623)"/></g><g style="fill:#006092;fill-opacity:1"><path style="fill:#006092;fill-opacity:1;fill-rule:nonzero;stroke:none" d="M0 0h-.911v3.014h-.866v.736H.86v-.736H0Z" transform="matrix(.35278 0 0 -.35278 28.76 13.813)"/></g><path style="fill:#006092;fill-opacity:1;fill-rule:nonzero;stroke:none;stroke-width:.35277775" d="M72.672 74.596h.322v-1.323h-.322z" transform="translate(-42.756 -60.783)"/><g style="fill:#006092;fill-opacity:1" clip-path="url(#c)" transform="matrix(.35278 0 0 -.35278 -32.5 293.5)"><g style="fill:#006092;fill-opacity:1"><path style="fill:#006092;fill-opacity:1;fill-rule:nonzero;stroke:none" d="M0 0c0-1.074-.877-1.94-1.962-1.94-1.119 0-2.006.854-2.006 1.934 0 .545.219 1.052.629 1.439.359.338.848.523 1.399.523C-.831 1.956 0 1.118 0 0m-3.042.005c0-.618.467-1.102 1.063-1.102A1.07 1.07 0 0 1-.922-.012c0 .641-.45 1.124-1.051 1.124-.614 0-1.069-.471-1.069-1.107" transform="translate(183.913 794.68)"/></g></g><g style="fill:#006092;fill-opacity:1"><path style="fill:#006092;fill-opacity:1;fill-rule:nonzero;stroke:none" d="M0 0h-.911v3.75H0l1.366-2.108V3.75h.911V0h-.911L0 2.137Z" transform="matrix(.35278 0 0 -.35278 33.406 13.813)"/></g><g style="fill:#006092;fill-opacity:1"><path style="fill:#006092;fill-opacity:1;fill-rule:nonzero;stroke:none" d="m0 0-.163-.54h-.972L.101 3.21h1.158L2.491-.54h-1L1.327 0Zm.664 2.136L.225.737h.877z" transform="matrix(.35278 0 0 -.35278 35.333 13.623)"/></g><g style="fill:#006092;fill-opacity:1"><path style="fill:#006092;fill-opacity:1;fill-rule:nonzero;stroke:none" d="M0 0v-.736h-2.131v3.75h.912V0Z" transform="matrix(.35278 0 0 -.35278 37.683 13.554)"/></g></svg>